<svg xmlns="http://www.w3.org/2000/svg" data-name="Layer 1" viewBox="0 0 68 85" x="0px" y="0px"><path d="M16,45.17a1.52,1.52,0,0,0-2.11,0,1.49,1.49,0,0,0,0,2.11l6.58,6.6a1.51,1.51,0,0,0,1.07.45h0a1.48,1.48,0,0,0,1-.43,1.5,1.5,0,0,0,0-2.12Z"/><path d="M38.26,37.45a8.68,8.68,0,0,1-2.44,7.35A8.68,8.68,0,1,1,29.67,30l.57,0,4.56-4.57A15.14,15.14,0,0,0,32,23.73a6.56,6.56,0,0,0-5.94.13,7.09,7.09,0,0,0-2.7,2.5c-3,4.48-6.28,7.15-10.48,8.4C3.28,37.91.41,44.79,1.78,49.85c.82,3,2.86,6,6.58,9.56,3.52,3.7,6.56,5.79,9.56,6.59a9.22,9.22,0,0,0,2.48.34C25,66.34,30.34,63,33,54.92c1.25-4.19,3.91-7.51,8.38-10.47a7.47,7.47,0,0,0,2.48-2.69c1.69-3.17.38-6.11-1.36-8.57ZM24,55.3a3.45,3.45,0,0,1-2.46,1h0a3.49,3.49,0,0,1-2.48-1h0l-6.59-6.6a3.5,3.5,0,0,1,0-4.95,3.58,3.58,0,0,1,4.94,0L24,50.35A3.51,3.51,0,0,1,24,55.3Z"/><path d="M66.25,12.11a1,1,0,0,0-1.42,0l0,0L64,11.31l.12-.12a2.25,2.25,0,0,0,0-3.17L59.9,3.85a2.26,2.26,0,0,0-3.15,0L56.63,4l-.57-.56,0,0A1,1,0,0,0,56.1,2a1,1,0,0,0-1.41,0L53.2,3.44a1,1,0,0,0,0,1.42,1,1,0,0,0,.71.29,1,1,0,0,0,.7-.29l0,0,.56.57L53.45,7.15l-.56-.56,0,0a1,1,0,1,0-1.42-1.42l-.73.74L50,6.62A1,1,0,0,0,50,8a1,1,0,0,0,.71.29A1,1,0,0,0,51.44,8l0,0,.56.56-.13.13a1.07,1.07,0,0,0-.26.45l-.81,3L31,32.11A6.88,6.88,0,0,0,29.67,32a6.62,6.62,0,0,0-4.71,2,6.68,6.68,0,0,0,4.73,11.4,6.59,6.59,0,0,0,4.71-2,6.69,6.69,0,0,0,1.68-6.59L55.74,17.1l3.13-.87a1.17,1.17,0,0,0,.44-.26l.06-.06.84.84,0,0a1,1,0,0,0,0,1.41,1,1,0,0,0,.71.29,1,1,0,0,0,.71-.29l.74-.75.74-.74a1,1,0,0,0,0-1.42,1,1,0,0,0-1.41,0l0,0-.83-.84,1.76-1.76.83.83,0,0a1,1,0,0,0,0,1.41,1,1,0,0,0,.7.29,1,1,0,0,0,.71-.29l1.49-1.49A1,1,0,0,0,66.25,12.11Z"/><text x="0" y="83" fill="#000000" font-size="5px" font-weight="bold" font-family="'Helvetica Neue', Helvetica, Arial-Unicode, Arial, Sans-serif">Created by Soremba</text><text x="0" y="88" fill="#000000" font-size="5px" font-weight="bold" font-family="'Helvetica Neue', Helvetica, Arial-Unicode, Arial, Sans-serif">from the Noun Project</text></svg>