<svg width="66" height="65" viewBox="0 0 66 65" fill="none" xmlns="http://www.w3.org/2000/svg">
<path d="M27.5565 21.375C28.5886 21.3525 29.6115 21.5743 30.5419 22.0215C31.5338 22.4852 32.4727 23.0546 33.3417 23.7207L28.7821 28.291H28.2118C26.7831 28.2901 25.3762 28.6422 24.1161 29.3154C22.856 29.9887 21.7816 30.9623 20.9882 32.1504C20.1948 33.3385 19.7063 34.7041 19.5673 36.126C19.4282 37.5479 19.643 38.9824 20.1913 40.3018C20.7395 41.6211 21.605 42.7848 22.7108 43.6895C23.8166 44.594 25.1285 45.2114 26.5302 45.4873C27.9318 45.7632 29.3799 45.6894 30.746 45.2715C32.1122 44.8534 33.3548 44.104 34.3622 43.0908C35.31 42.1383 36.0238 40.9784 36.4471 39.7031C36.8705 38.4278 36.9916 37.0715 36.8016 35.7412L41.0419 31.4814C42.7817 33.9413 44.0918 36.8811 42.4022 40.0508C41.8113 41.1392 40.9586 42.064 39.9218 42.7412C35.4518 45.7012 32.7919 49.021 31.5419 53.2109C28.8819 61.2909 23.5413 64.6309 18.9413 64.6309C18.1032 64.6308 17.269 64.5165 16.4618 64.291C13.4619 63.491 10.4221 61.401 6.90222 57.7012C3.18222 54.1412 1.14214 51.1406 0.322144 48.1406C-1.04769 43.0806 1.82191 36.2007 11.4218 33.0508C15.6217 31.8008 18.9022 29.1313 21.9022 24.6514C22.5664 23.5951 23.4973 22.7326 24.6014 22.1514C25.5115 21.6638 26.5244 21.3976 27.5565 21.375ZM13.4813 41.0527C12.5617 41.0528 11.6773 41.4065 11.0116 42.041C10.6866 42.366 10.4287 42.7521 10.2528 43.1768C10.077 43.6012 9.98626 44.0562 9.98621 44.5156C9.98621 44.9753 10.0769 45.4308 10.2528 45.8555C10.4287 46.2801 10.6866 46.6662 11.0116 46.9912L17.6014 53.5908C17.9288 53.9123 18.3166 54.1663 18.7421 54.3379C19.1676 54.5095 19.6231 54.5953 20.0819 54.5908C20.5376 54.5949 20.9898 54.5085 21.412 54.3369C21.8341 54.1653 22.2183 53.9117 22.5419 53.5908C23.1957 52.9332 23.5623 52.0436 23.5624 51.1162C23.5624 50.1887 23.1959 49.2983 22.5419 48.6406L15.952 42.041C15.2863 41.4064 14.4011 41.0527 13.4813 41.0527ZM13.4872 43.0352C13.8805 43.0353 14.2587 43.1879 14.5419 43.4609L21.0819 50.0713C21.3626 50.3525 21.5203 50.7335 21.5204 51.1309C21.5204 51.5284 21.3628 51.9102 21.0819 52.1914C20.8154 52.4565 20.4577 52.61 20.0819 52.6211C19.8827 52.6204 19.6855 52.5801 19.5018 52.5029C19.3182 52.4257 19.1514 52.3128 19.0116 52.1709L12.4315 45.5713C12.2927 45.4329 12.1824 45.2679 12.1073 45.0869C12.0323 44.906 11.994 44.7115 11.994 44.5156C11.9941 44.3199 12.0324 44.1261 12.1073 43.9453C12.1824 43.7643 12.2928 43.5993 12.4315 43.4609C12.7148 43.1878 13.0937 43.0352 13.4872 43.0352ZM53.9364 0C54.2005 0 54.4541 0.104848 54.6415 0.291016C54.7357 0.386947 54.8101 0.500824 54.8593 0.625977C54.9084 0.751151 54.9313 0.885096 54.9276 1.01953C54.9239 1.15381 54.8937 1.28607 54.8378 1.4082C54.7817 1.53045 54.7009 1.64088 54.6014 1.73145L55.1718 2.29102L55.2919 2.14062C55.7137 1.73089 56.279 1.50195 56.8671 1.50195C57.4549 1.50204 58.0196 1.73106 58.4413 2.14062L62.662 6.31055C63.0803 6.73201 63.3143 7.30268 63.3143 7.89648C63.3142 8.49012 63.0802 9.06009 62.662 9.48145L62.5419 9.60059L63.3719 10.4014C63.4649 10.3077 63.5754 10.2334 63.6971 10.1826C63.819 10.1318 63.9499 10.1055 64.0819 10.1055C64.2139 10.1055 64.3449 10.1319 64.4667 10.1826C64.5883 10.2334 64.699 10.3078 64.7919 10.4014C64.96 10.5683 65.0636 10.7894 65.0839 11.0254C65.104 11.2617 65.0398 11.4983 64.9022 11.6914L63.412 13.1807C63.3186 13.2733 63.2076 13.3467 63.0858 13.3965C62.9641 13.4462 62.8335 13.4714 62.702 13.4707C62.4397 13.4696 62.1881 13.3654 62.0018 13.1807C61.8157 12.9933 61.7108 12.7397 61.7108 12.4756C61.7109 12.2116 61.8158 11.9587 62.0018 11.7715L61.1718 10.9414L59.412 12.7012L60.2421 13.541C60.4294 13.3549 60.683 13.25 60.9471 13.25C61.2112 13.2501 61.465 13.3549 61.6522 13.541C61.7458 13.6339 61.8202 13.7445 61.871 13.8662C61.9217 13.9881 61.9471 14.119 61.9471 14.251C61.9471 14.383 61.9217 14.5139 61.871 14.6357C61.8203 14.7575 61.7458 14.868 61.6522 14.9609L60.912 15.7012L60.1718 16.4512C60.0783 16.5438 59.9674 16.6172 59.8456 16.667C59.7238 16.7167 59.5933 16.742 59.4618 16.7412C59.3303 16.742 59.1998 16.7167 59.078 16.667C58.9562 16.6172 58.8452 16.5438 58.7518 16.4512C58.5656 16.2638 58.4608 16.0103 58.4608 15.7461C58.4608 15.4819 58.5656 15.2284 58.7518 15.041L57.912 14.2012L57.8514 14.2607C57.7258 14.3787 57.576 14.4683 57.412 14.5215L54.2821 15.3906L34.6219 35.1006C34.9566 36.2488 34.9769 37.4661 34.6815 38.625C34.386 39.784 33.7849 40.8434 32.9413 41.6914C32.3293 42.3218 31.5976 42.8236 30.7889 43.167C29.9801 43.5105 29.1101 43.6889 28.2313 43.6914C26.9105 43.6919 25.619 43.3006 24.5204 42.5674C23.4217 41.8341 22.5647 40.7914 22.0585 39.5713C21.5522 38.3511 21.4198 37.0077 21.6766 35.7119C21.9335 34.4162 22.5685 33.2257 23.5018 32.291C24.1149 31.6618 24.8475 31.1607 25.6561 30.8174C26.4646 30.4741 27.3334 30.2952 28.2118 30.291C28.6576 30.2845 29.1032 30.3217 29.5419 30.4014L49.3417 10.4307L50.1522 7.43066C50.2006 7.2618 50.2898 7.10767 50.412 6.98145L50.5419 6.85059L49.9813 6.29102C49.8856 6.38603 49.7717 6.46094 49.6464 6.51074C49.5209 6.56056 49.3867 6.58448 49.2518 6.58105C49.1203 6.58182 48.9898 6.55655 48.868 6.50684C48.7462 6.45708 48.6353 6.38367 48.5419 6.29102C48.3646 6.10504 48.2655 5.85753 48.2655 5.60059C48.2656 5.3438 48.3647 5.097 48.5419 4.91113L49.2821 4.20117L50.0116 3.46094C50.1048 3.3677 50.2159 3.29362 50.3378 3.24316C50.4594 3.19281 50.5899 3.16702 50.7216 3.16699C50.8534 3.16699 50.9845 3.1927 51.1063 3.24316C51.228 3.29359 51.3384 3.36783 51.4315 3.46094C51.5248 3.55418 51.5988 3.66529 51.6493 3.78711C51.6997 3.90882 51.7254 4.03917 51.7255 4.1709C51.7255 4.30276 51.6998 4.43384 51.6493 4.55566C51.5988 4.67734 51.5247 4.78772 51.4315 4.88086L51.9921 5.44141L53.7118 3.7207L53.1522 3.15137C52.966 3.33604 52.7143 3.44023 52.452 3.44141C52.3206 3.44217 52.1899 3.41682 52.0682 3.36719C51.9465 3.31748 51.8354 3.24389 51.7421 3.15137C51.6483 3.0584 51.5741 2.94705 51.5233 2.8252C51.4726 2.7035 51.4462 2.57322 51.4462 2.44141C51.4462 2.30939 51.4725 2.1785 51.5233 2.05664C51.5741 1.9348 51.6484 1.8244 51.7421 1.73145L53.2313 0.291016C53.4186 0.104844 53.6723 8.95038e-05 53.9364 0Z" fill="black"/>
</svg>
