<svg width="97" height="95" viewBox="0 0 97 95" fill="none" xmlns="http://www.w3.org/2000/svg">
<g filter="url(#filter0_d_1_46)">
<path d="M92.7295 70.576C92.729 80.6758 69.8591 86.1259 48.3594 86.1259C26.8597 86.1258 4.00051 80.6758 4 70.576V45.9657C12.12 53.1256 30.6496 56.8358 48.3594 56.8358C66.0693 56.8358 84.6094 53.1256 92.7295 45.9657V70.576ZM57.8701 22.6454C76.1099 24.0054 92.7293 29.2357 92.7295 37.8456C92.7295 47.9456 69.8694 53.3954 48.3594 53.3954C26.8595 53.3953 4 47.9455 4 37.8456C4.00018 29.2357 20.6198 24.0054 38.8496 22.6454L42.1094 26.746C21.0099 27.726 8.30008 33.5556 8.2998 37.8456C8.2998 42.5456 23.5296 49.1258 48.3594 49.1259C73.1894 49.1259 88.4297 42.5456 88.4297 37.8456C88.4294 33.5556 75.7197 27.746 54.6201 26.746L57.8701 22.6454ZM27.0195 0.225464C27.4894 -0.00329458 28.0246 -0.0597874 28.5322 0.0643311C29.0399 0.188515 29.4885 0.486257 29.7998 0.906128L57.2998 37.6454C57.9827 37.4158 58.7216 37.4152 59.4053 37.6425C60.089 37.8698 60.6804 38.3133 61.0898 38.9061C61.6917 39.6858 61.9596 40.6724 61.834 41.6493C61.7083 42.6264 61.1997 43.514 60.4199 44.1161C59.6402 44.7181 58.6528 44.9859 57.6758 44.8602C56.6989 44.7346 55.812 44.2256 55.21 43.4462C54.7367 42.8986 54.4554 42.2105 54.4102 41.4882C54.365 40.7658 54.5586 40.0485 54.96 39.4462L26.3896 3.53601C26.0614 3.12906 25.8864 2.61932 25.8955 2.09656C25.9047 1.57388 26.0973 1.07085 26.4395 0.675659C26.5229 0.584802 26.6172 0.503997 26.7197 0.435425C26.8139 0.357549 26.9141 0.287273 27.0195 0.225464ZM46.9902 32.8759L41.7695 39.4354C42.1678 40.0389 42.3586 40.7558 42.3135 41.4774C42.2684 42.199 41.9898 42.8862 41.5195 43.4354C40.9064 44.1834 40.0263 44.6635 39.0654 44.7733C38.1044 44.8831 37.1382 44.6138 36.3721 44.0233C35.606 43.4328 35.0995 42.5675 34.9609 41.6102C34.8224 40.6529 35.0626 39.6789 35.6299 38.8954C36.041 38.3019 36.634 37.858 37.3193 37.6307C38.0047 37.4035 38.7454 37.4053 39.4297 37.6356L44.9297 30.2958L46.9902 32.8759ZM68.2471 0.0643311C68.7547 -0.0598417 69.2899 -0.00327252 69.7598 0.225464C69.8636 0.289634 69.9637 0.35986 70.0596 0.435425C70.1589 0.504256 70.2501 0.585074 70.3301 0.675659C70.667 1.07581 70.8515 1.58224 70.8516 2.10535C70.8516 2.62863 70.6671 3.13575 70.3301 3.53601L51.8994 26.7655L49.7598 23.9061L66.9795 0.906128C67.2907 0.486281 67.7394 0.188528 68.2471 0.0643311Z" fill="black"/>
</g>
<defs>
<filter id="filter0_d_1_46" x="0" y="0" width="96.7295" height="94.1259" filterUnits="userSpaceOnUse" color-interpolation-filters="sRGB">
<feFlood flood-opacity="0" result="BackgroundImageFix"/>
<feColorMatrix in="SourceAlpha" type="matrix" values="0 0 0 0 0 0 0 0 0 0 0 0 0 0 0 0 0 0 127 0" result="hardAlpha"/>
<feOffset dy="4"/>
<feGaussianBlur stdDeviation="2"/>
<feComposite in2="hardAlpha" operator="out"/>
<feColorMatrix type="matrix" values="0 0 0 0 0 0 0 0 0 0 0 0 0 0 0 0 0 0 0.25 0"/>
<feBlend mode="normal" in2="BackgroundImageFix" result="effect1_dropShadow_1_46"/>
<feBlend mode="normal" in="SourceGraphic" in2="effect1_dropShadow_1_46" result="shape"/>
</filter>
</defs>
</svg>
