<svg xmlns="http://www.w3.org/2000/svg" data-name="Layer 1" viewBox="0 0 100 125" x="0px" y="0px"><title>MUSICAL INSTRUMENTS</title><path d="M6.2,54.84V79.45C6.2,89.55,29.06,95,50.56,95s44.37-5.45,44.37-15.55V54.84C86.81,62,68.27,65.71,50.56,65.71S14.32,62,6.2,54.84Z"/><path d="M57.16,48.32a3.31,3.31,0,0,0,.25,4,3.71,3.71,0,1,0,5.88-4.54,3.32,3.32,0,0,0-3.79-1.26L32,9.78a2.24,2.24,0,0,0-2.78-.68,2.28,2.28,0,0,0-.3.21,1.55,1.55,0,0,0-.28.24,2.23,2.23,0,0,0-.05,2.86Z"/><path d="M47.13,39.17l-5.5,7.34a3.33,3.33,0,0,0-3.8,1.26,3.72,3.72,0,0,0,5.89,4.54,3.33,3.33,0,0,0,.25-4l5.22-6.56Z"/><path d="M50.56,62.27c21.51,0,44.37-5.45,44.37-15.55,0-8.61-16.62-13.84-34.86-15.2l-3.25,4.1c21.1,1,33.81,6.81,33.81,11.1C90.63,51.42,75.39,58,50.56,58S10.5,51.42,10.5,46.72c0-4.29,12.71-10.12,33.81-11.1l-3.26-4.1C22.82,32.88,6.2,38.11,6.2,46.72,6.2,56.82,29.06,62.27,50.56,62.27Z"/><path d="M72.53,12.41a2.22,2.22,0,0,0,0-2.86,1.5,1.5,0,0,0-.27-.24,3.21,3.21,0,0,0-.3-.21,2.24,2.24,0,0,0-2.78.68l-17.22,23,2.14,2.86Z"/><text x="0" y="115" fill="#000000" font-size="5px" font-weight="bold" font-family="'Helvetica Neue', Helvetica, Arial-Unicode, Arial, Sans-serif">Created by Soremba</text><text x="0" y="120" fill="#000000" font-size="5px" font-weight="bold" font-family="'Helvetica Neue', Helvetica, Arial-Unicode, Arial, Sans-serif">from the Noun Project</text></svg>