<svg width="69" height="64" viewBox="0 0 69 64" fill="none" xmlns="http://www.w3.org/2000/svg">
<path d="M52.8447 0.000305176C53.3741 -0.00627074 53.8996 0.0923303 54.3906 0.290344C54.8817 0.488397 55.3283 0.782508 55.7051 1.1546C56.0818 1.52668 56.3808 1.96976 56.585 2.45831C56.7891 2.94681 56.8945 3.47089 56.8945 4.00031V55.721C56.8944 56.7817 56.4727 57.7991 55.7227 58.5491C54.9726 59.2992 53.9553 59.721 52.8945 59.721H51.2744V62.0003C51.2744 62.5307 51.0635 63.0393 50.6885 63.4144C50.3134 63.7894 49.8048 64.0003 49.2744 64.0003H44.2744C43.744 64.0003 43.2354 63.7894 42.8604 63.4144C42.4854 63.0393 42.2744 62.5307 42.2744 62.0003V59.721H26.2744V62.0003C26.2744 62.5307 26.0635 63.0393 25.6885 63.4144C25.3134 63.7894 24.8048 64.0003 24.2744 64.0003H19.334C18.8037 64.0002 18.2949 63.7893 17.9199 63.4144C17.5451 63.0393 17.334 62.5306 17.334 62.0003V59.6907H15.7148C14.654 59.6907 13.6359 59.269 12.8857 58.5189C12.1358 57.7688 11.7149 56.7515 11.7148 55.6907V4.00031C11.7149 2.93961 12.1357 1.92224 12.8857 1.17218C13.6359 0.422035 14.654 0.000305176 15.7148 0.000305176H52.8447ZM40.1406 25.3675C37.3395 24.2073 34.2568 23.9039 31.2832 24.4954C28.3097 25.087 25.5784 26.5469 23.4346 28.6907C21.2906 30.8347 19.8308 33.5666 19.2393 36.5403C18.6479 39.5138 18.9512 42.5958 20.1113 45.3968C21.2716 48.198 23.2368 50.5922 25.7578 52.2767C28.2788 53.9611 31.2424 54.8607 34.2744 54.8607V54.8509C38.3374 54.8482 42.2334 53.2335 45.1074 50.3616C47.9815 47.4894 49.5992 43.5938 49.6045 39.5306C49.6045 36.4986 48.705 33.535 47.0205 31.014C45.336 28.493 42.9418 26.5278 40.1406 25.3675ZM34.2744 26.2005C37.8081 26.2058 41.1956 27.612 43.6943 30.1107C46.193 32.6094 47.5992 35.9969 47.6045 39.5306C47.6045 42.167 46.8221 44.7447 45.3574 46.9368C43.8928 49.1286 41.8114 50.8372 39.376 51.846C36.9402 52.8549 34.2596 53.1191 31.6738 52.6048C29.0881 52.0905 26.7129 50.8206 24.8486 48.9564C22.9844 47.0921 21.7145 44.7169 21.2002 42.1312C20.6859 39.5454 20.9501 36.8647 21.959 34.429C22.9679 31.9934 24.6771 29.9122 26.8691 28.4476C29.0612 26.9829 31.638 26.2005 34.2744 26.2005ZM38.5938 29.0823C36.5286 28.2259 34.2553 28.0012 32.0625 28.4368C29.8696 28.8725 27.8553 29.9497 26.2744 31.5306C24.6935 33.1115 23.6164 35.1257 23.1807 37.3187C22.745 39.5115 22.9697 41.7848 23.8262 43.8499C24.6827 45.915 26.1334 47.6794 27.9932 48.9202C29.8529 50.161 32.0387 50.8226 34.2744 50.8206C37.2671 50.8153 40.1358 49.6243 42.252 47.5081C44.3681 45.392 45.5592 42.5232 45.5645 39.5306C45.5664 37.2949 44.9049 35.1091 43.6641 33.2493C42.4232 31.3896 40.6589 29.9389 38.5938 29.0823ZM34.2744 30.2308C36.7384 30.2361 39.0995 31.218 40.8408 32.9612C42.5822 34.7045 43.5618 37.0666 43.5645 39.5306C43.5645 41.3704 43.0184 43.169 41.9961 44.6985C40.9738 46.228 39.521 47.4198 37.8213 48.1234C36.1214 48.827 34.2506 49.0103 32.4463 48.6507C30.6421 48.291 28.9848 47.4044 27.6846 46.1028C26.3846 44.8013 25.4993 43.1436 25.1416 41.3392C24.7839 39.5347 24.9695 37.6642 25.6748 35.9651C26.3802 34.2661 27.574 32.814 29.1045 31.7933C30.6352 30.7726 32.4346 30.2288 34.2744 30.2308ZM36.0957 35.1331C35.226 34.7729 34.269 34.678 33.3457 34.8616C32.4224 35.0453 31.5739 35.4987 30.9082 36.1644C30.2425 36.8301 29.7891 37.6785 29.6055 38.6019C29.4218 39.5251 29.5167 40.4821 29.877 41.3519C30.2372 42.2216 30.8471 42.9656 31.6299 43.4886C32.4126 44.0116 33.333 44.2903 34.2744 44.2903C35.536 44.2877 36.7456 43.786 37.6377 42.8939C38.5298 42.0018 39.0315 40.7922 39.0342 39.5306C39.0342 38.5892 38.7554 37.6688 38.2324 36.886C37.7094 36.1033 36.9655 35.4934 36.0957 35.1331ZM34.2744 36.7708C35.0056 36.7734 35.7056 37.0653 36.2227 37.5823C36.7397 38.0994 37.0315 38.7994 37.0342 39.5306C37.0342 40.0764 36.8725 40.6099 36.5693 41.0638C36.2661 41.5175 35.8352 41.8715 35.3311 42.0804C34.8268 42.2892 34.2716 42.344 33.7363 42.2376C33.2009 42.1311 32.7092 41.8677 32.3232 41.4818C31.9373 41.0958 31.6739 40.604 31.5674 40.0687C31.461 39.5334 31.5158 38.9781 31.7246 38.4739C31.9335 37.9698 32.2875 37.5388 32.7412 37.2357C33.1951 36.9325 33.7286 36.7708 34.2744 36.7708ZM4.56445 22.3743C4.69645 22.3743 4.82737 22.4007 4.94922 22.4515C5.07095 22.5022 5.18152 22.5766 5.27441 22.6702C5.46059 22.8575 5.56535 23.1112 5.56543 23.3753C5.56543 23.6394 5.46059 23.893 5.27441 24.0804C3.17628 26.182 1.99813 29.0306 1.99805 32.0003C1.99805 34.97 3.17633 37.8185 5.27441 39.9202C5.46059 40.1075 5.56535 40.3612 5.56543 40.6253C5.56543 40.8894 5.46059 41.143 5.27441 41.3304C5.18153 41.424 5.07095 41.4984 4.94922 41.5491C4.82737 41.5999 4.69645 41.6263 4.56445 41.6263C4.43244 41.6263 4.30155 41.5999 4.17969 41.5491C4.05793 41.4984 3.94739 41.424 3.85449 41.3304C1.38627 38.8526 0 35.4976 0 32.0003C8.06156e-05 28.503 1.3863 25.1479 3.85449 22.6702C3.9474 22.5766 4.05795 22.5022 4.17969 22.4515C4.30155 22.4007 4.43244 22.3743 4.56445 22.3743ZM64.0146 22.3743C64.1466 22.3744 64.2776 22.4007 64.3994 22.4515C64.5211 22.5022 64.6317 22.5766 64.7246 22.6702C67.1928 25.1479 68.578 28.503 68.5781 32.0003C68.5781 35.4976 67.1927 38.8526 64.7246 41.3304C64.6318 41.424 64.5211 41.4984 64.3994 41.5491C64.2776 41.5999 64.1466 41.6263 64.0146 41.6263C63.8826 41.6263 63.7517 41.5999 63.6299 41.5491C63.5081 41.4984 63.3976 41.4241 63.3047 41.3304C63.1184 41.143 63.0137 40.8895 63.0137 40.6253C63.0138 40.3612 63.1185 40.1075 63.3047 39.9202C65.4027 37.8185 66.5811 34.97 66.5811 32.0003C66.581 29.0306 65.4028 26.182 63.3047 24.0804C63.1184 23.893 63.0137 23.6395 63.0137 23.3753C63.0138 23.1112 63.1185 22.8575 63.3047 22.6702C63.3976 22.5767 63.5082 22.5022 63.6299 22.4515C63.7517 22.4007 63.8827 22.3743 64.0146 22.3743ZM7.39453 25.2347C7.5265 25.2347 7.65747 25.2611 7.7793 25.3118C7.90104 25.3626 8.01161 25.4369 8.10449 25.5306C8.29073 25.7179 8.39551 25.9715 8.39551 26.2357C8.3955 26.4998 8.29073 26.7534 8.10449 26.9407C6.76358 28.2832 6.00985 30.1029 6.00977 32.0003C6.00977 33.8978 6.7635 35.7183 8.10449 37.0609C8.24194 37.2011 8.33494 37.3787 8.37207 37.5716C8.40915 37.7645 8.38913 37.9645 8.31348 38.1458C8.23772 38.3272 8.10967 38.4828 7.94629 38.5921C7.78298 38.7013 7.59099 38.7602 7.39453 38.761C7.26305 38.7618 7.13248 38.7365 7.01074 38.6868C6.88903 38.6371 6.77795 38.5636 6.68457 38.471C4.97108 36.7538 4.00879 34.4262 4.00879 32.0003C4.00887 29.5745 4.97115 27.2478 6.68457 25.5306C6.77749 25.4369 6.88799 25.3626 7.00977 25.3118C7.13162 25.2611 7.26252 25.2347 7.39453 25.2347ZM61.1543 25.2347C61.2863 25.2347 61.4172 25.2611 61.5391 25.3118C61.6608 25.3626 61.7713 25.4369 61.8643 25.5306C63.5777 27.2478 64.54 29.5745 64.54 32.0003C64.54 34.4262 63.5778 36.7538 61.8643 38.471C61.7709 38.5636 61.6598 38.6371 61.5381 38.6868C61.4164 38.7365 61.2858 38.7618 61.1543 38.761C60.9578 38.7602 60.7658 38.7013 60.6025 38.5921C60.4392 38.4828 60.3111 38.3272 60.2354 38.1458C60.1597 37.9645 60.1397 37.7645 60.1768 37.5716C60.2139 37.3787 60.3069 37.2011 60.4443 37.0609C61.7829 35.717 62.5342 33.897 62.5342 32.0003C62.5341 30.1037 61.7828 28.2845 60.4443 26.9407C60.2581 26.7534 60.1533 26.4998 60.1533 26.2357C60.1533 25.9715 60.2581 25.7179 60.4443 25.5306C60.5372 25.4369 60.6478 25.3626 60.7695 25.3118C60.8914 25.2611 61.0223 25.2347 61.1543 25.2347ZM34.2744 4.86066C32.0695 4.86331 29.9556 5.74107 28.3975 7.30109C26.8394 8.86108 25.9648 10.9762 25.9648 13.181C25.9649 14.8268 26.4526 16.4357 27.3672 17.804C28.2818 19.1724 29.5817 20.239 31.1025 20.8685C32.6234 21.4979 34.297 21.662 35.9111 21.3401C37.5253 21.0183 39.0077 20.2244 40.1709 19.0599C41.334 17.8953 42.1254 16.4117 42.4453 14.7972C42.7651 13.1827 42.599 11.5096 41.9678 9.98956C41.3365 8.46961 40.2688 7.17106 38.8994 6.25812C37.5299 5.34511 35.9204 4.85868 34.2744 4.86066ZM48.6045 19.4905C48.3393 19.4905 48.085 19.596 47.8975 19.7835C47.7099 19.971 47.6045 20.2253 47.6045 20.4905C47.6045 20.7558 47.7099 21.01 47.8975 21.1976C48.085 21.3851 48.3393 21.4905 48.6045 21.4905H49.9043C50.1695 21.4905 50.4238 21.3851 50.6113 21.1976C50.7989 21.01 50.9043 20.7558 50.9043 20.4905C50.9043 20.2253 50.7988 19.971 50.6113 19.7835C50.4238 19.596 50.1695 19.4905 49.9043 19.4905H48.6045ZM31.8613 7.33331C33.0165 6.85382 34.2879 6.72851 35.5146 6.97198C36.7414 7.2155 37.8685 7.81718 38.7529 8.70148C39.6373 9.58587 40.2398 10.713 40.4834 11.9398C40.7269 13.1666 40.6007 14.4388 40.1211 15.5941C39.6415 16.7491 38.8298 17.7364 37.7891 18.43C36.7483 19.1235 35.5251 19.4925 34.2744 19.4905C32.6018 19.4879 30.9982 18.8226 29.8154 17.64C28.6327 16.4573 27.9676 14.8535 27.9648 13.181C27.9629 11.9301 28.3317 10.7062 29.0254 9.66534C29.7191 8.6246 30.7062 7.81286 31.8613 7.33331ZM35.6416 9.06476C35.092 8.90006 34.5146 8.84767 33.9443 8.91046C32.8256 9.00008 31.7864 9.52456 31.0498 10.3714C30.3132 11.2183 29.9385 12.3203 30.0049 13.4407C30.0782 14.5221 30.5576 15.5356 31.3477 16.2776C32.138 17.0197 33.1806 17.4356 34.2646 17.4407H34.6045C35.1776 17.415 35.7401 17.2739 36.2578 17.0267C36.7754 16.7794 37.2381 16.4308 37.6182 16.0013C37.9984 15.5716 38.2883 15.0697 38.4707 14.5257C38.6531 13.9818 38.7239 13.4063 38.6797 12.8343C38.6354 12.2624 38.4768 11.7049 38.2129 11.1956C37.949 10.6863 37.5852 10.2354 37.1436 9.86945C36.7018 9.50339 36.1912 9.22945 35.6416 9.06476ZM34.2744 10.9007C34.8158 10.9017 35.3401 11.0929 35.7549 11.4407C35.9834 11.6352 36.1711 11.8732 36.3066 12.1409C36.4422 12.4087 36.5225 12.701 36.5439 13.0003C36.5909 13.6021 36.3976 14.1983 36.0059 14.6575C35.6141 15.1168 35.0559 15.402 34.4541 15.4505C34.1554 15.4761 33.8544 15.4417 33.5693 15.3489C33.2843 15.2562 33.0203 15.1069 32.7939 14.9105C32.5637 14.7175 32.375 14.4793 32.2393 14.2112C32.1036 13.9433 32.0241 13.6506 32.0049 13.3509C31.9579 12.749 32.1512 12.1529 32.543 11.6937C32.9348 11.2344 33.493 10.9492 34.0947 10.9007H34.2744Z" fill="black"/>
</svg>
