<svg xmlns="http://www.w3.org/2000/svg" data-name="Layer 1" viewBox="0 0 68 85" x="0px" y="0px"><path d="M64.45,24.67a1,1,0,0,0-1.42,0,1,1,0,0,0,0,1.41,11.21,11.21,0,0,1,0,15.84,1,1,0,0,0,0,1.41,1,1,0,0,0,1.42,0A13.22,13.22,0,0,0,64.45,24.67Z"/><path d="M61.59,27.53a1,1,0,0,0-1.42,0,1,1,0,0,0,0,1.41,7.17,7.17,0,0,1,0,10.12,1,1,0,0,0,.71,1.7,1,1,0,0,0,.71-.29A9.16,9.16,0,0,0,61.59,27.53Z"/><path d="M5,26.08a1,1,0,0,0,0-1.41,1,1,0,0,0-1.42,0,13.22,13.22,0,0,0,0,18.66,1,1,0,0,0,1.42,0,1,1,0,0,0,0-1.41A11.21,11.21,0,0,1,5,26.08Z"/><path d="M7.83,27.53a1,1,0,0,0-1.42,0,9.16,9.16,0,0,0,0,12.94,1,1,0,0,0,.71.29,1,1,0,0,0,.71-1.7,7.16,7.16,0,0,1,0-10.12A1,1,0,0,0,7.83,27.53Z"/><path d="M34,21.49a6.32,6.32,0,1,0-6.31-6.31A6.32,6.32,0,0,0,34,21.49Zm-.33-10.58a4.28,4.28,0,1,1,.66,8.53l-.34,0a4.29,4.29,0,0,1-4.26-4A4.29,4.29,0,0,1,33.67,10.91Z"/><path d="M34.18,17.45A2.28,2.28,0,0,0,36.27,15a2.26,2.26,0,0,0-.79-1.56A2.31,2.31,0,0,0,34,12.9h-.18a2.28,2.28,0,0,0-2.09,2.45,2.22,2.22,0,0,0,.79,1.56A2.24,2.24,0,0,0,34.18,17.45Z"/><path d="M34,38.77a2.76,2.76,0,1,0,2.76,2.76A2.77,2.77,0,0,0,34,38.77Z"/><path d="M52.57,2H15.44a4,4,0,0,0-4,4V57.69a4,4,0,0,0,4,4h1.62V64a2,2,0,0,0,2,2H24a2,2,0,0,0,2-2V61.72H42V64a2,2,0,0,0,2,2h5a2,2,0,0,0,2-2V61.72h1.62a4,4,0,0,0,4-4V6A4,4,0,0,0,52.57,2ZM34,6.86a8.32,8.32,0,1,1-8.31,8.32A8.32,8.32,0,0,1,34,6.86Zm0,50A15.33,15.33,0,1,1,49.33,41.53,15.34,15.34,0,0,1,34,56.85ZM49.63,23.49h-1.3a1,1,0,0,1,0-2h1.3a1,1,0,0,1,0,2Z"/><path d="M34,28.2A13.33,13.33,0,1,0,47.33,41.53,13.35,13.35,0,0,0,34,28.2Zm0,24.62A11.3,11.3,0,1,1,45.29,41.53,11.31,11.31,0,0,1,34,52.82Z"/><path d="M34,32.23a9.3,9.3,0,1,0,9.29,9.3A9.31,9.31,0,0,0,34,32.23Zm0,14.06a4.76,4.76,0,1,1,4.76-4.76A4.77,4.77,0,0,1,34,46.29Z"/><text x="0" y="83" fill="#000000" font-size="5px" font-weight="bold" font-family="'Helvetica Neue', Helvetica, Arial-Unicode, Arial, Sans-serif">Created by Soremba</text><text x="0" y="88" fill="#000000" font-size="5px" font-weight="bold" font-family="'Helvetica Neue', Helvetica, Arial-Unicode, Arial, Sans-serif">from the Noun Project</text></svg>