
<svg xmlns="http://www.w3.org/2000/svg" data-name="Layer 1" viewBox="0 0 68 85" x="0px" y="0px"><path d="M36.43,16.07,56.9,36.54a14.59,14.59,0,0,1-1.67.62,15.4,15.4,0,0,1-4.51.67A15.56,15.56,0,0,1,36.43,16.07Z"/><path d="M65,28.47,44.51,8A15.56,15.56,0,0,1,65,28.47Z"/><path d="M36.68,35.24a1,1,0,0,1,.74.31,1.06,1.06,0,0,1,0,1.49L35.2,39.26a1.05,1.05,0,1,1-1.49-1.49l2.23-2.22A1,1,0,0,1,36.68,35.24Z"/><path d="M46,39.18,26,56.83s0,0,0,0l-.73.64a4.38,4.38,0,0,1-2.9,1.1,4.32,4.32,0,0,1-2.47-.77l-2.07,1.44a2.67,2.67,0,0,1-2.91.13,7.93,7.93,0,0,1-5.14,1.87h0A8,8,0,0,1,4.1,47.58L16.91,34.76a4,4,0,1,0-5.69-5.7L6.78,33.5a1,1,0,0,1-1.42-1.42L9.8,27.64a6,6,0,0,1,8.53,8.54L5.52,49A6,6,0,0,0,9.77,59.28h0A5.94,5.94,0,0,0,13.52,58a2.68,2.68,0,0,1,.17-2.83l1.44-2.06h0a4.39,4.39,0,0,1,.33-5.37l.65-.73L33.8,27A17.25,17.25,0,0,0,37,33.26a3,3,0,0,0-2.51.87L32.3,36.36a3.05,3.05,0,0,0,4.31,4.32l2.23-2.23a3,3,0,0,0,.89-2.16c0-.11,0-.23,0-.34A17.2,17.2,0,0,0,46,39.18Z"/><path d="M64.58,32a2.54,2.54,0,0,1-.75,1.8l-1.65,1.66a2.55,2.55,0,0,1-3.6,0l-21-21a2.49,2.49,0,0,1-.75-1.8,2.54,2.54,0,0,1,.75-1.8l1.65-1.65a2.55,2.55,0,0,1,3.6,0l21,21A2.57,2.57,0,0,1,64.58,32Z"/><text x="0" y="83" fill="#000000" font-size="5px" font-weight="bold" font-family="'Helvetica Neue', Helvetica, Arial-Unicode, Arial, Sans-serif">Created by Soremba</text><text x="0" y="88" fill="#000000" font-size="5px" font-weight="bold" font-family="'Helvetica Neue', Helvetica, Arial-Unicode, Arial, Sans-serif">from the Noun Project</text></svg>