<svg width="65" height="55" viewBox="0 0 65 55" fill="none" xmlns="http://www.w3.org/2000/svg">
<path d="M12.3152 19.173C13.9158 19.1739 15.4506 19.811 16.5818 20.9435C17.7128 22.0759 18.3474 23.6116 18.3464 25.2121C18.3454 26.8124 17.7091 28.3467 16.5769 29.4777L3.76636 42.298C2.91387 43.1355 2.33127 44.2091 2.09253 45.38C1.8539 46.5508 1.97009 47.766 2.42651 48.8703C2.88308 49.9746 3.65916 50.9177 4.65503 51.5783C5.6509 52.2388 6.8214 52.5872 8.01636 52.5783C9.37597 52.5934 10.6997 52.1412 11.7664 51.298C11.5273 50.8576 11.417 50.3587 11.447 49.8585C11.4771 49.3584 11.6462 48.8765 11.9363 48.4679L13.3767 46.4083C12.8282 45.6035 12.5631 44.6383 12.6228 43.6662C12.6826 42.6942 13.064 41.7698 13.7068 41.0382L14.3562 40.3078L32.0466 20.298C32.6722 22.5822 33.7618 24.7129 35.2468 26.5578C34.7898 26.5003 34.3256 26.5495 33.8904 26.7003C33.4553 26.8512 33.0605 27.1 32.7371 27.4279L30.5466 29.6583C29.9738 30.2299 29.6511 31.0054 29.6501 31.8146C29.6492 32.6238 29.9703 33.3999 30.5417 33.9728C31.1133 34.5456 31.8888 34.8683 32.698 34.8693C33.5072 34.8702 34.2833 34.5492 34.8562 33.9777L37.0867 31.7482C37.3719 31.466 37.5979 31.129 37.7507 30.7579C37.9035 30.387 37.98 29.9892 37.9763 29.588V29.2482C39.8208 30.7464 41.9561 31.8457 44.2468 32.4777L24.2468 50.1281L23.5164 50.7677C22.7163 51.4758 21.6853 51.8675 20.6169 51.8683C19.7343 51.87 18.8716 51.6008 18.1462 51.0978L16.0769 52.5382C15.6567 52.8393 15.1578 53.0121 14.6414 53.0353C14.1248 53.0584 13.6123 52.9305 13.1667 52.6681C11.7295 53.8812 9.90781 54.5441 8.0271 54.5382C6.44223 54.5434 4.89087 54.0778 3.57104 53.2003C2.25126 52.3229 1.22153 51.0729 0.613037 49.6095C0.00464751 48.1462 -0.155451 46.535 0.153076 44.9806C0.461642 43.4261 1.22516 41.9981 2.34644 40.8781L15.157 28.0578C15.9125 27.3033 16.3376 26.2798 16.3386 25.2121C16.3396 24.1442 15.9162 23.1193 15.1619 22.3634C14.7883 21.9892 14.3445 21.6922 13.8562 21.4894C13.3678 21.2866 12.844 21.1813 12.3152 21.1808C11.2472 21.1799 10.2224 21.604 9.46655 22.3585L5.0271 26.798C4.8388 26.9863 4.58246 27.0919 4.31616 27.0919C4.05002 27.0918 3.7944 26.9862 3.6062 26.798C3.41807 26.6097 3.31226 26.3542 3.31226 26.088C3.31228 25.8218 3.41803 25.5663 3.6062 25.3781L8.04663 20.9376C9.17908 19.8066 10.7147 19.1721 12.3152 19.173ZM34.9265 28.5382C35.0645 28.536 35.2016 28.5621 35.3289 28.6154C35.4562 28.6687 35.5715 28.7479 35.6667 28.8478C35.8627 29.0462 35.9724 29.3141 35.9724 29.5929C35.9724 29.8718 35.8627 30.1396 35.6667 30.338L33.447 32.5578C33.3493 32.6555 33.2329 32.7333 33.1052 32.7863C32.9775 32.8392 32.8402 32.8663 32.7019 32.8663C32.5636 32.8663 32.4264 32.8392 32.2986 32.7863C32.1708 32.7333 32.0546 32.6556 31.9568 32.5578C31.859 32.4599 31.7812 32.3437 31.7283 32.216C31.6754 32.0882 31.6482 31.9509 31.6482 31.8126C31.6483 31.6745 31.6755 31.5379 31.7283 31.4103C31.7812 31.2825 31.859 31.1663 31.9568 31.0685L34.1863 28.8478C34.2815 28.7478 34.3968 28.6687 34.5242 28.6154C34.6515 28.5621 34.7885 28.536 34.9265 28.5382ZM55.1462 29.838C54.6028 30.0785 54.045 30.2857 53.4763 30.4581C52.0146 30.904 50.4947 31.1298 48.9666 31.1281C46.3836 31.1311 43.84 30.4911 41.5662 29.2658C39.2926 28.0405 37.3599 26.2683 35.9421 24.1095C34.5243 21.9505 33.666 19.4721 33.4451 16.8986C33.2242 14.3252 33.6474 11.7373 34.6765 9.3683L55.1462 29.838ZM39.2771 1.76479C39.9517 1.76491 40.5991 2.03175 41.0769 2.50795L62.0769 23.5079C62.5512 23.9836 62.8204 24.6263 62.8269 25.298C62.8266 25.6325 62.7602 25.9638 62.6316 26.2726C62.5029 26.5814 62.3142 26.862 62.0769 27.0978L60.4265 28.7579C59.9486 29.2342 59.3014 29.5021 58.6267 29.5021C57.952 29.5021 57.3049 29.2342 56.8269 28.7579L35.8269 7.75795C35.5873 7.52386 35.3972 7.24393 35.2683 6.93471C35.1394 6.62542 35.0744 6.29319 35.0769 5.95815C35.0772 5.62355 35.1435 5.2924 35.2722 4.98354C35.4009 4.67463 35.5895 4.39417 35.8269 4.15834L37.4763 2.50795C37.9543 2.03164 38.6023 1.76479 39.2771 1.76479ZM42.7566 1.29799C45.6215 0.0480786 48.7966 -0.309731 51.8679 0.270645C54.9393 0.851029 57.765 2.34276 59.9763 4.5519C62.1874 6.76092 63.682 9.58482 64.2654 12.6554C64.8487 15.7261 64.4938 18.9017 63.2468 21.7677L42.7566 1.29799Z" fill="black"/>
</svg>
